<?xml version="1.0" standalone="no"?><!DOCTYPE svg PUBLIC "-//W3C//DTD SVG 1.1//EN" "http://www.w3.org/Graphics/SVG/1.1/DTD/svg11.dtd"><svg t="1695299350756" class="icon" viewBox="0 0 1024 1024" version="1.1" xmlns="http://www.w3.org/2000/svg" p-id="3024" xmlns:xlink="http://www.w3.org/1999/xlink" width="200" height="200"><path d="M503.828388 958.626084c-20.553105 0-39.001269-35.480073-58.533115-73.043596-17.271362-33.217543-35.131125-67.564815-50.836829-67.564815L206.96112 818.017672c-53.381791 0-96.809883-43.433208-96.809883-96.820116L110.151237 158.749584c0-53.381791 43.428092-96.809883 96.809883-96.809883l609.345072 0c53.371558 0 96.792487 43.428092 96.792487 96.809883l0 562.447972c0 53.386908-43.420929 96.820116-96.792487 96.820116L644.437823 818.017672c-20.685111 0-43.700291 34.361599-65.957201 67.592444C554.43702 921.507698 529.574772 958.626084 503.828388 958.626084zM206.96112 68.079538c-49.995671 0-90.670046 40.674375-90.670046 90.670046l0 562.447972c0 50.000787 40.674375 90.680279 90.670046 90.680279l187.498348 0c19.433608 0 37.33328 34.426067 56.284911 70.873164 16.996093 32.686447 36.259832 69.735248 53.085032 69.735248 22.467711 0 46.402843-35.734876 69.550029-70.292949 24.219611-36.160571 47.095621-70.315462 71.058382-70.315462l171.868369 0c49.986461 0 90.65265-40.679491 90.65265-90.680279L906.958842 158.749584c0-49.995671-40.666188-90.670046-90.65265-90.670046L206.96112 68.079538z" fill="#558dd8" p-id="3025"></path><path d="M324.144006 326.944284l374.978277 0 0 6.139837-374.978277 0 0-6.139837Z" fill="#558dd8" p-id="3026"></path><path d="M410.673755 490.064408l201.901383 0 0 6.139837-201.901383 0 0-6.139837Z" fill="#558dd8" p-id="3027"></path></svg>